<?xml version="1.0" encoding="UTF-8"?>
<svg id="Layer_2" data-name="Layer 2" xmlns="http://www.w3.org/2000/svg" viewBox="0 0 2049.16 462.6">
  <defs>
    <style>
      .cls-1 {
        fill: #52ccab;
      }

      .cls-2 {
        fill: #ffb8b0;
      }

      .cls-3 {
        fill: #ff734f;
      }

      .cls-4 {
        fill: #fff;
      }

      .cls-5 {
        fill: #f9c640;
      }
    </style>
  </defs>
  <g id="Layer_1-2" data-name="Layer 1">
    <g>
      <g>
        <path class="cls-5" d="M266.34,316.92l26.43.76c12.21.35,18.72,14.56,11.01,24.04l-16.68,20.51c-3.06,3.76-4.07,8.8-2.71,13.45l7.44,25.37c3.44,11.73-8.06,22.31-19.46,17.9l-24.66-9.53c-4.53-1.75-9.62-1.16-13.63,1.58l-21.83,14.92c-10.09,6.89-23.7-.77-23.04-12.98l1.44-26.4c.26-4.85-1.87-9.51-5.71-12.47l-20.93-16.15c-9.67-7.47-6.59-22.78,5.22-25.92l25.55-6.79c4.69-1.25,8.47-4.72,10.1-9.29l8.89-24.9c4.11-11.51,19.63-13.31,26.27-3.04l14.35,22.2c2.63,4.08,7.11,6.59,11.96,6.73Z"/>
        <path class="cls-4" d="M226.23,267.89c.26-63.19-50.67-68.62-52.82-68.82l4.62-50.13c34.25,3.18,98.9,32.15,98.55,119.16l-50.35-.21Z"/>
        <circle class="cls-3" cx="156.54" cy="267.96" r="41.13"/>
        <path class="cls-2" d="M342.18,414.28l-6.29,12.52c-1.35,2.69-4.62,3.78-7.3,2.43l-13.61-6.84c-2.68-1.35-3.76-4.62-2.41-7.31l6.36-12.65c1.35-2.69.28-5.96-2.41-7.31l-13.15-6.61c-2.68-1.35-3.76-4.62-2.41-7.31l6.86-13.65c1.35-2.69,4.62-3.78,7.3-2.43l13.38,6.73c2.68,1.35,5.95.26,7.3-2.43l6.63-13.19c1.35-2.69,4.62-3.78,7.3-2.43l13.38,6.73c2.68,1.35,3.76,4.62,2.41,7.31l-6.51,12.96c-1.35,2.69-.28,5.96,2.41,7.31l12.61,6.34c2.68,1.35,3.76,4.62,2.41,7.31l-7.22,14.35c-1.38,2.74-4.74,3.81-7.43,2.36l-12.19-6.54c-2.69-1.45-6.05-.38-7.43,2.36Z"/>
        <path class="cls-1" d="M124.09,336.65l36.71,41.93c7.44,8.59,3.25,21.99-7.81,24.8l-78.9,19.68c-11.51,2.9-21.82-7.99-18.2-19.39l25.33-80.88c3.55-11.3,18.22-14.41,26.01-5.41l6.71,7.7,10.16,11.57Z"/>
        <path class="cls-4" d="M406.25,365.77l-128.57-212.31V49.82c0-21.91-17.82-39.73-39.66-39.73h-60.39c-21.91,0-39.73,17.82-39.73,39.73v103.64L9.34,365.77c-12.09,20.02-12.47,44.2-.95,64.6,11.33,20.21,31.86,32.23,54.9,32.23h289c23.05,0,43.57-12.02,54.97-32.23,11.46-20.4,11.08-44.58-1.01-64.6ZM387.68,419.35c-7.37,13.03-20.59,20.84-35.39,20.84H63.29c-14.79,0-28.01-7.81-35.38-20.84-7.49-13.22-7.24-28.96.63-42l2.2-3.59,1.64-2.7,1.57-2.65,11.84-19.58,1.64-2.64,1.63-2.71,11.84-19.52,1.64-2.71,1.64-2.7,96.14-158.8V49.82c0-9.51,7.74-17.25,17.31-17.25h60.39c9.5,0,17.25,7.74,17.25,17.25v109.93l131.78,217.6c7.87,13.04,8.12,28.78.63,42Z"/>
        <path class="cls-4" d="M195.82,71.55v5.41c0,.28-.22.5-.48.5h-39.71c-.16,0-.33-.09-.41-.25-.09-.15-.09-.34,0-.49l2.87-5.42c.09-.16.25-.25.42-.25h36.83c.26,0,.48.22.48.5Z"/>
        <path class="cls-4" d="M195.82,96.48v5.35c0,.28-.22.5-.48.5h-53c-.16,0-.33-.09-.41-.25-.09-.15-.09-.34,0-.5l2.87-5.34c.09-.16.25-.26.42-.26h50.12c.26,0,.48.22.48.5Z"/>
        <path class="cls-4" d="M195.82,121.41v5.35c0,.28-.21.5-.48.5h-55.54c-.27,0-.48-.22-.48-.5v-5.35c0-.28.21-.5.48-.5h55.54c.27,0,.48.22.48.5Z"/>
      </g>
      <g>
        <path class="cls-4" d="M637.21,67.88V11.72c-76.45-33.63-142.89,22.52-142.89,91.47s66.44,126.76,142.89,91.74v-54.77c-38.08,27.52-90.35,13.62-90.35-36.97s52.27-65.06,90.35-35.31Z"/>
        <path class="cls-4" d="M786.14,6.44v73.67h-53.66V6.44h-51.98v194.32h51.98v-78.39h53.66v78.39h52.26V6.44h-52.26Z"/>
        <path class="cls-4" d="M883.44,6.44v194.32h51.98V6.44h-51.98Z"/>
        <path class="cls-4" d="M1032.33,154.89V6.44h-51.15v194.32h106.47v-45.87h-55.32Z"/>
        <path class="cls-4" d="M1167.69,6.44h-52.27v194.32h53.38c66.99,0,104.8-33.63,104.8-98.41s-36.69-95.91-105.91-95.91ZM1168.52,155.17V52.03c36.14,0,53.65,17.24,53.65,50.88s-17.51,52.26-53.65,52.26Z"/>
        <path class="cls-4" d="M1428.45,139.05c-1.67,30.3-24.47,30.02-39.48-2.23,15.57-1.67,57.83-10.29,57.83-66.44,0-58.94-48.65-63.94-77.57-63.94h-63.94v194.32h50.6v-37.81c17.24,26.69,36.42,40.31,57.27,40.31,23.07,0,41.7-12.51,50.87-34.47,3.89-9.45,6.12-19.46,6.12-29.74h-41.7ZM1383.61,90.99v14.32c0,3.08-2.49,5.58-5.56,5.58h-15.57c-3.06,0-5.55-2.5-5.55-5.58v-14.47c0-3.08-2.49-5.57-5.55-5.57h-15.04c-3.07,0-5.56-2.49-5.56-5.57v-15.62c0-3.08,2.49-5.57,5.56-5.57h15.3c3.07,0,5.56-2.5,5.56-5.57v-15.1c0-3.07,2.48-5.57,5.55-5.57h15.3c3.07,0,5.56,2.5,5.56,5.57v14.83c0,3.08,2.49,5.57,5.55,5.57h14.43c3.07,0,5.56,2.49,5.56,5.57v16.42c0,3.14-2.58,5.65-5.7,5.57l-7.28-.2-6.86-.18c-3.12-.08-5.7,2.44-5.7,5.57Z"/>
        <path class="cls-4" d="M1560.49,52.03h45.32V6.44h-106.48v194.32h106.48v-45.59h-45.59c-8.34,0-12.51-5-12.51-15.01,0-9.45,4.17-14.46,12.78-14.46h42.54v-45.59h-42.81c-7.79,0-11.96-4.72-11.96-14.18s3.89-13.9,12.23-13.9Z"/>
        <path class="cls-4" d="M1765.99,6.44v117.32s-38.09-60.33-54.77-117.6l-60.88.28v194.32h51.99v-97.02c22.79,46.43,61.44,97.02,61.44,97.02h54.21V6.44h-51.99Z"/>
        <path class="cls-4" d="M1996.61,82.89c-16.12-6.11-31.69-10.28-31.69-21.68,0-8.34,6.95-13.9,16.96-13.9,16.96,0,36.7,16.4,52.27,16.4V16.73s-26.42-13.9-55.33-13.9c-39.47,0-67.27,25.57-67.27,62.27s29.46,51.15,50.31,58.66c16.96,5.84,25.3,12.79,25.3,20.85,0,10.28-7.78,16.4-20.29,16.4-17.24,0-36.7-16.96-52.82-16.96v46.98s27.24,15.29,55.32,15.29c54.77,0,71.17-41.7,71.17-66.16.28-27.52-14.18-46.43-43.93-57.27Z"/>
        <path class="cls-4" d="M554.37,262.44h-52.26v194.32h53.37c67,0,104.81-33.64,104.81-98.41s-36.7-95.91-105.92-95.91ZM555.21,411.17v-103.14c36.14,0,53.65,17.24,53.65,50.88s-17.51,52.26-53.65,52.26Z"/>
        <path class="cls-4" d="M694.76,262.44v194.32h51.98v-194.32h-51.98Z"/>
        <path class="cls-4" d="M872.67,338.89c-16.12-6.11-31.69-10.28-31.69-21.68,0-8.34,6.95-13.9,16.96-13.9,16.96,0,36.69,16.4,52.26,16.4v-46.98s-26.41-13.9-55.32-13.9c-39.48,0-67.28,25.57-67.28,62.27s29.47,51.15,50.32,58.66c16.96,5.84,25.3,12.79,25.3,20.85,0,10.28-7.78,16.4-20.29,16.4-17.24,0-36.7-16.96-52.82-16.96v46.98s27.24,15.29,55.32,15.29c54.76,0,71.17-41.7,71.17-66.16.27-27.52-14.18-46.43-43.93-57.27Z"/>
        <path class="cls-4" d="M1087.82,323.88v-56.16c-76.45-33.63-142.9,22.52-142.9,91.47s66.45,126.76,142.9,91.74v-54.77c-38.09,27.52-90.35,13.62-90.35-36.97s52.26-65.06,90.35-35.31Z"/>
        <path class="cls-4" d="M1219.34,255.77c-137.33,0-133.44,206.83.28,206.83s137.05-206.83-.28-206.83ZM1268.28,408.35l-21.82-3.7-7.76-1.31c-3.95-.67-7.99.65-10.79,3.54l-2.12,2.18-18.77,19.34c-7.04,7.26-19.35,3.29-20.82-6.71l-3.35-22.68-1.03-7c-.59-3.97-3.09-7.4-6.69-9.17l-4.46-2.19-22.47-11.03c-9.08-4.45-9.11-17.38-.05-21.88l22.97-11.4,3.9-1.93c3.6-1.79,6.08-5.23,6.65-9.2l.75-5.26,3.5-24.44c1.43-10.01,13.72-14.03,20.8-6.8l20.26,20.7.72.73c2.81,2.87,6.85,4.17,10.81,3.49l5.5-.96,24.05-4.18c9.96-1.73,17.59,8.71,12.9,17.67l-10.32,19.73-3.58,6.85c-1.86,3.56-1.85,7.81.03,11.36l3.64,6.88,10.37,19.64c4.73,8.94-2.85,19.42-12.82,17.73Z"/>
        <path class="cls-4" d="M1473.71,262.44c-11.96,45.04-29.19,85.63-46.71,115.93-17.23-30.3-34.47-70.89-46.42-115.93h-49.21c28.08,114.82,95.63,199.61,95.63,199.61,0,0,67.56-84.79,95.91-199.61h-49.2Z"/>
        <path class="cls-4" d="M1609.92,308.03h45.32v-45.59h-106.48v194.32h106.48v-45.59h-45.6c-8.34,0-12.51-5-12.51-15.01,0-9.45,4.17-14.46,12.79-14.46h42.54v-45.59h-42.82c-7.78,0-11.95-4.72-11.95-14.18s3.89-13.9,12.23-13.9Z"/>
        <path class="cls-4" d="M1823.43,395.04c-1.67,30.31-24.47,30.03-39.48-2.22,15.57-1.67,57.83-10.29,57.83-66.44,0-58.94-48.65-63.94-77.57-63.94h-63.94v194.32h50.6v-37.81c17.24,26.69,36.42,40.31,57.27,40.31,23.07,0,41.7-12.51,50.87-34.47,3.89-9.45,6.12-19.46,6.12-29.75h-41.7ZM1757.65,364.46c-6.53,4.01-14.98-.7-14.96-8.42l-.05-54.71c0-7.64,8.43-12.4,14.97-8.36l5.62,3.44,8.5,5.16,6.05,3.69,11.89,7.24,12.78,7.79c6.24,3.85,6.25,12.91-.01,16.78l-14.81,9.05-5.71,3.5-24.27,14.84Z"/>
        <path class="cls-4" d="M1988,262.44l-31.97,58.1-33.08-58.1h-60.61l67,110.09v84.23h50.6v-84.23l69.22-110.09h-61.16Z"/>
        <path class="cls-4" d="M1841.71,76.53c29.79-28.51,9.26-54.88,8.38-55.98l25.63-20.54c14.02,17.52,29.72,61-11.3,100.26l-22.71-23.73Z"/>
      </g>
    </g>
  </g>
</svg>